#!OML:ASF H:\Terrain\Patient Classification 1\Walking\liu\liu.ASF
:FULLY-SPECIFIED
:DEGREES
64
root 9.06077 16.2792 -27.4449 5.23365 -11.9767 0.826819
lowerback -5.10353 0.498588 -2.6243
upperback -2.15447 0.756907 2.42847
thorax 0.575274 0.400109 4.02002
lowerneck -22.7327 -3.98609 -11.656
upperneck 17.9396 -4.60709 12.8631
head 10.0497 -1.46463 5.84653
rclavicle -5.24295e-015 -1.35174e-014
rhumerus -43.0575 13.2223 -90.9946
rradius 38.0512
rwrist -19.4163
rhand -29.4669 -26.1224
rfingers 7.12502
rthumb -2.80265 -56.0838
lclavicle -5.24295e-015 -1.35174e-014
lhumerus -39.386 -5.87341 88.6563
lradius 20.8758
lwrist -3.56517
lhand 1.53751 -17.4604
lfingers 7.12502
lthumb 27.0622 10.6203
rfemur -3.05715 -0.540568 15.2506
rtibia 55.9653
rfoot 7.40904 -10.0479
rtoes -5.85209
lfemur -27.4474 8.05401 -24.0716
ltibia 32.848
lfoot -10.3932 7.58723
ltoes -2.89549
65
root 9.08353 16.3066 -27.3221 5.19989 -11.7902 0.863372
lowerback -4.92277 0.410582 -2.58309
upperback -2.28745 0.635131 2.4549
thorax 0.348616 0.345226 4.0144
lowerneck -22.4602 -3.92644 -11.6071
upperneck 17.9565 -4.55737 12.8038
head 9.99596 -1.45342 5.82204
rclavicle -1.79652e-014 -1.66979e-014
rhumerus -43.2425 13.0583 -90.8541
rradius 38.076
rwrist -19.5821
rhand -29.7988 -26.1338
rfingers 7.12502
rthumb -3.12315 -56.0907
lclavicle -1.79652e-014 -1.66979e-014
lhumerus -39.1166 -6.20096 88.6857
lradius 21.0495
lwrist -3.25864
lhand 0.841818 -17.5901
lfingers 7.12502
lthumb 26.3964 10.5923
rfemur -4.25298 -0.748141 15.3913
rtibia 57.3242
rfoot 6.36379 -10.5036
rtoes -4.2584
lfemur -26.6292 7.68216 -24.2053
ltibia 32.2607
lfoot -10.4348 7.76555
ltoes -3.47494
66
root 9.10333 16.3346 -27.2048 5.22049 -11.602 0.617442
lowerback -4.9903 0.316456 -2.25441
upperback -2.18518 0.494254 2.53904
thorax 0.50675 0.268547 3.90971
lowerneck -22.357 -4.03717 -11.5966
upperneck 17.6839 -4.68396 12.7257
head 9.89635 -1.52337 5.76037
rclavicle 2.03257e-014 -6.36111e-015
rhumerus -43.0462 12.8988 -90.6199
rradius 38.1097
rwrist -19.6844
rhand -29.8341 -25.6354
rfingers 7.12502
rthumb -3.15726 -55.5917
lclavicle 2.03257e-014 -6.36111e-015
lhumerus -38.3314 -5.93856 88.3162
lradius 21.1612
lwrist -3.8174
lhand 0.672059 -17.7115
lfingers 7.12502
lthumb 26.2339 10.4952
rfemur -5.46514 -0.827971 15.9138
rtibia 58.5184
rfoot 5.03143 -10.7509
rtoes -2.28574
lfemur -25.8452 7.36432 -24.0159
ltibia 31.643
lfoot -10.3015 7.97159
ltoes -4.36824
67
root 9.11944 16.354 -27.1003 5.25876 -11.3341 0.578659
lowerback -5.12157 0.197437 -2.19318
upperback -2.02295 0.332538 2.57571
thorax 0.76082 0.180792 3.90648
lowerneck -22.5665 -4.07274 -11.5427
upperneck 17.6609 -4.68756 12.5612
head 9.92005 -1.53304 5.68962
rclavicle -1.65737e-014 1.66979e-014
rhumerus -42.7869 12.923 -90.4558
rradius 38.2235
rwrist -19.862
rhand -29.8255 -25.6699
rfingers 7.12502
rthumb -3.14896 -55.6264
lclavicle -1.65737e-014 1.66979e-014
lhumerus -37.4797 -6.97695 88.584
lradius 21.4248
lwrist -3.04867
lhand 0.507587 -17.3638
lfingers 7.12502
lthumb 26.0765 10.8662
rfemur -6.8011 -0.989197 16.2669
rtibia 59.6204
rfoot 3.87486 -10.6797
rtoes -2.61707
lfemur -25.1905 7.09119 -24.0521
ltibia 31.0535
lfoot -10.2192 8.0319
ltoes -4.09995
68
root 9.13678 16.3717 -26.9869 5.33277 -10.9939 0.868951
lowerback -5.2745 0.0449102 -2.49124
upperback -2.034 0.146193 2.54911
thorax 0.849136 0.0871343 4.03832
lowerneck -22.6199 -3.95395 -11.6128
upperneck 17.8625 -4.52623 12.6318
head 9.98202 -1.45381 5.761
rclavicle -2.13818e-014 -3.81667e-014
rhumerus -42.8246 12.9282 -90.3407
rradius 38.3709
rwrist -19.9357
rhand -30.0018 -26.1931
rfingers 7.12502
rthumb -3.31924 -56.1471
lclavicle -2.13818e-014 -3.81667e-014
lhumerus -36.9275 -8.18926 88.9901
lradius 21.6354
lwrist -1.84927
lhand -0.000908941 -17.5612
lfingers 7.12502
lthumb 25.5895 10.7397
rfemur -8.12734 -1.26228 16.2177
rtibia 60.6024
rfoot 2.7555 -10.2405
rtoes -4.55675
lfemur -24.6064 6.71271 -24.4795
ltibia 30.5207
lfoot -10.247 8.05739
ltoes -4.21493
69
root 9.15424 16.3928 -26.8704 5.39254 -10.6056 1.06864
lowerback -5.33871 -0.115475 -2.65259
upperback -2.10213 -0.0575372 2.50545
thorax 0.832611 -0.0130604 4.07252
lowerneck -22.6202 -3.8722 -11.5742
upperneck 18.1393 -4.45794 12.6656
head 10.0705 -1.41576 5.78811
rclavicle -6.75868e-015 -1.35174e-014
rhumerus -42.9663 12.7672 -90.2122
rradius 38.622
rwrist -19.9153
rhand -30.0667 -26.1255
rfingers 7.12502
rthumb -3.38189 -56.0784
lclavicle -6.75868e-015 -1.35174e-014
lhumerus -36.2686 -8.54481 88.834
lradius 21.6178
lwrist -1.93155
lhand -0.430335 -18.3153
lfingers 7.12502
lthumb 25.1781 10.0441
rfemur -9.37719 -1.45094 16.3036
rtibia 61.4424
rfoot 1.18851 -10.0236
rtoes -6.39483
lfemur -24.0586 6.29671 -24.8077
ltibia 30.0518
lfoot -10.3109 8.13324
ltoes -4.9083
70
root 9.17308 16.4058 -26.7627 5.25444 -10.2547 0.980677
lowerback -5.18228 -0.223817 -2.45786
upperback -2.00978 -0.214267 2.50068
thorax 0.854411 -0.0939637 3.94749
lowerneck -22.8185 -3.88529 -11.5489
upperneck 18.4919 -4.50579 12.7077
head 10.2396 -1.42521 5.80748
rclavicle -1.87603e-015 -2.38542e-015
rhumerus -42.8916 12.6475 -90.1101
rradius 38.7455
rwrist -20.1258
rhand -30.3084 -24.7518
rfingers 7.12502
rthumb -3.6153 -54.7009
lclavicle -1.87603e-015 -2.38542e-015
lhumerus -35.3646 -8.95846 88.6096
lradius 21.6512
lwrist -2.19066
lhand -0.676972 -18.2589
lfingers 7.12502
lthumb 24.9418 10.1335
rfemur -10.4391 -1.46127 16.7548
rtibia 62.1783
rfoot -0.587915 -10.5448
rtoes -8.48117
lfemur -23.3204 5.87368 -24.7644
ltibia 29.643
lfoot -10.4933 8.27966
ltoes -5.21454
71
root 9.1914 16.4156 -26.6487 5.08898 -10.1308 0.888286
lowerback -5.07664 -0.255531 -2.32358
upperback -1.90142 -0.266274 2.58374
thorax 0.911525 -0.122772 3.95455
lowerneck -22.6587 -3.96625 -11.8
upperneck 18.4199 -4.59734 12.9247
head 10.2106 -1.46614 5.91427
rclavicle 1.40889e-014 7.95139e-015
rhumerus -42.8304 12.7097 -89.9375
rradius 38.7027
rwrist -20.4622
rhand -30.5324 -23.4567
rfingers 7.12502
rthumb -3.83159 -53.402
lclavicle 1.40889e-014 7.95139e-015
lhumerus -34.6262 -9.22819 88.5509
lradius 21.9942
lwrist -2.18606
lhand -0.595625 -17.6193
lfingers 7.12502
lthumb 25.0197 10.7622
rfemur -11.4193 -1.22525 17.142
rtibia 62.8005
rfoot -2.67721 -10.8459
rtoes -9.66769
lfemur -22.5266 5.6384 -24.7281
ltibia 29.3403
lfoot -10.8457 8.43728
ltoes -5.19838
72
root 9.20103 16.424 -26.545 5.21492 -9.94984 1.14762
lowerback -5.16085 -0.366033 -2.68609
upperback -2.00571 -0.394582 2.61297
thorax 0.864001 -0.183483 4.18318
lowerneck -22.4406 -3.95928 -11.8089
upperneck 18.3878 -4.59346 12.8737
head 10.1572 -1.47765 5.89398
rclavicle -1.85988e-014 -2.62396e-014
rhumerus -43.0928 12.8306 -89.8177
rradius 38.9536
rwrist -20.7071
rhand -30.3912 -23.0425
rfingers 7.12502
rthumb -3.69519 -52.9902
lclavicle -1.85988e-014 -2.62396e-014
lhumerus -34.1304 -9.34559 88.4524
lradius 22.4859
lwrist -2.15764
lhand -0.451828 -17.258
lfingers 7.12502
lthumb 25.1575 11.1042
rfemur -12.8141 -1.06279 17.1806
rtibia 63.3127
rfoot -4.22371 -10.72
rtoes -10.383
lfemur -22.1608 5.52438 -25.1171
ltibia 29.0513
lfoot -11.0752 8.43662
ltoes -4.91471
73
root 9.20992 16.4247 -26.4487 5.32693 -9.58545 1.40635
lowerback -5.20356 -0.510212 -2.98135
upperback -2.08464 -0.57081 2.5816
thorax 0.824741 -0.268712 4.30777
lowerneck -22.3325 -3.89054 -11.5234
upperneck 18.4384 -4.53037 12.5457
head 10.1295 -1.46811 5.73205
rclavicle -3.66385e-014 3.97569e-015
rhumerus -43.311 12.8322 -89.7511
rradius 39.3261
rwrist -20.976
rhand -30.333 -22.5664
rfingers 7.12502
rthumb -3.63904 -52.515
lclavicle -3.66385e-014 3.97569e-015
lhumerus -33.4773 -9.91145 88.4011
lradius 22.8205
lwrist -1.81726
lhand -0.51917 -17.0849
lfingers 7.12502
lthumb 25.093 11.2863
rfemur -14.2274 -1.10777 17.2691
rtibia 63.6561
rfoot -5.29258 -10.8137
rtoes -11.4993
lfemur -21.7861 5.33019 -25.4957
ltibia 28.703
lfoot -11.2567 8.36254
ltoes -4.79385
